<svg width="72" height="72" viewBox="0 0 72 72" fill="none" xmlns="http://www.w3.org/2000/svg">
<path d="M49.4661 19.9481C52.0641 19.9481 54.9558 21.0297 57.511 23.16C57.5029 23.1776 57.4972 23.198 57.4866 23.2177C57.4303 23.3215 57.3521 23.4232 57.26 23.5067C48.6907 31.2695 50.3433 45.0529 59.6399 51.1141C59.8537 51.2536 59.9923 51.448 60.0461 51.5917C60.0574 51.6218 60.061 51.6447 60.0637 51.6591C59.2974 53.2334 58.5878 54.4844 57.3147 56.4247C55.9338 58.5251 54.4039 60.6731 52.72 62.287C51.0089 63.9269 49.5088 64.6597 48.1907 64.6688H48.1848C46.7829 64.6816 46.0127 64.2918 44.3596 63.5428C42.7081 62.7946 40.6662 61.9693 37.4905 61.8944L36.8518 61.8905C33.3255 61.9074 31.1148 62.7896 29.3508 63.5682C27.6851 64.3036 26.8694 64.6953 25.4446 64.6805H25.4417C24.0313 64.6675 22.5613 63.9745 20.9583 62.5067C19.553 61.2201 18.2553 59.5287 17.0354 57.7323L16.5178 56.9569C12.8716 51.4025 10.8786 45.3997 10.3469 39.9852C9.80998 34.5174 10.7807 29.9174 12.7122 26.9491L12.7141 26.9471C15.678 22.3843 20.2059 19.9541 24.1028 19.954C26.1291 19.954 27.8101 20.4969 29.7844 21.2001C31.6535 21.8657 34.0492 22.7947 36.804 22.7948C39.541 22.7948 41.7781 21.826 43.5002 21.1805C45.2784 20.5141 47.0084 19.9482 49.4661 19.9481Z" stroke="white" stroke-width="6"/>
<path d="M45.0087 5.33942C44.5817 7.16262 43.6754 8.91274 42.5546 10.3521L42.5516 10.355C41.3738 11.8722 39.624 13.1624 37.7694 13.8492C38.1818 12.0393 39.1556 10.2375 40.3387 8.79547C41.4904 7.40065 43.2022 6.14667 45.0087 5.33942Z" stroke="white" stroke-width="6"/>
</svg>
