<svg width="72" height="72" viewBox="0 0 72 72" fill="none" xmlns="http://www.w3.org/2000/svg">
<path d="M64.1194 50.04C62.5669 53.4881 61.8188 55.0294 59.8219 58.0725C57.0263 62.325 53.0832 67.635 48.2119 67.6687C43.8751 67.7081 42.7557 64.8394 36.8663 64.89C30.9826 64.9181 29.7563 67.725 25.4138 67.68C20.5369 67.635 16.8076 62.8537 14.0119 58.6069C6.19318 46.6987 5.36631 32.7375 10.1982 25.3125C13.6182 20.0475 19.0238 16.9538 24.1032 16.9538C29.2782 16.9538 32.5294 19.7944 36.8044 19.7944C40.9557 19.7944 43.4813 16.9481 49.4663 16.9481C53.9888 16.9481 58.7701 19.4119 62.1901 23.6644C51.0076 29.7956 52.8244 45.765 64.1194 50.04ZM44.9213 12.195C47.0982 9.39938 48.7519 5.45625 48.1501 1.44C44.6007 1.68188 40.4494 3.94875 38.0251 6.885C35.8257 9.5625 34.0032 13.5338 34.7119 17.3756C38.5876 17.4994 42.5982 15.1875 44.9213 12.195Z" fill="black"/>
</svg>
