<svg width="72" height="72" viewBox="0 0 72 72" fill="none" xmlns="http://www.w3.org/2000/svg">
<path d="M36 9H15C13.4087 9 11.8826 9.63214 10.7574 10.7574C9.63214 11.8826 9 13.4087 9 15V57C9 58.5913 9.63214 60.1174 10.7574 61.2426C11.8826 62.3679 13.4087 63 15 63H57C58.5913 63 60.1174 62.3679 61.2426 61.2426C62.3679 60.1174 63 58.5913 63 57V36" stroke="white" stroke-width="6" stroke-linecap="round" stroke-linejoin="round"/>
<path d="M55.1248 7.87568C56.3183 6.68221 57.937 6.01172 59.6248 6.01172C61.3126 6.01172 62.9313 6.68221 64.1248 7.87568C65.3183 9.06915 65.9888 10.6879 65.9888 12.3757C65.9888 14.0635 65.3183 15.6822 64.1248 16.8757L37.0858 43.9177C36.3734 44.6294 35.4934 45.1504 34.5268 45.4327L25.9078 47.9527C25.6496 48.028 25.376 48.0325 25.1155 47.9657C24.855 47.899 24.6173 47.7635 24.4271 47.5733C24.237 47.3832 24.1015 47.1454 24.0347 46.885C23.968 46.6245 23.9725 46.3508 24.0478 46.0927L26.5678 37.4737C26.8514 36.5078 27.3734 35.6289 28.0858 34.9177L55.1248 7.87568Z" stroke="white" stroke-width="6" stroke-linecap="round" stroke-linejoin="round"/>
</svg>
