<svg width="72" height="72" viewBox="0 0 72 72" fill="none" xmlns="http://www.w3.org/2000/svg">
<path d="M48 63V57C48 53.8174 46.7357 50.7652 44.4853 48.5147C42.2348 46.2643 39.1826 45 36 45H18C14.8174 45 11.7652 46.2643 9.51472 48.5147C7.26428 50.7652 6 53.8174 6 57V63" stroke="white" stroke-width="6" stroke-linecap="round" stroke-linejoin="round"/>
<path d="M48 9.38379C50.5733 10.0509 52.8522 11.5536 54.479 13.656C56.1059 15.7584 56.9886 18.3415 56.9886 20.9998C56.9886 23.6581 56.1059 26.2412 54.479 28.3436C52.8522 30.446 50.5733 31.9487 48 32.6158" stroke="white" stroke-width="6" stroke-linecap="round" stroke-linejoin="round"/>
<path d="M66 62.9996V56.9996C65.998 54.3408 65.1131 51.758 63.4841 49.6566C61.8551 47.5552 59.5744 46.0544 57 45.3896" stroke="white" stroke-width="6" stroke-linecap="round" stroke-linejoin="round"/>
<path d="M27 33C33.6274 33 39 27.6274 39 21C39 14.3726 33.6274 9 27 9C20.3726 9 15 14.3726 15 21C15 27.6274 20.3726 33 27 33Z" stroke="white" stroke-width="6" stroke-linecap="round" stroke-linejoin="round"/>
</svg>
