<svg width="72" height="72" viewBox="0 0 72 72" fill="none" xmlns="http://www.w3.org/2000/svg">
<path d="M29.9997 60C29.9994 60.5575 30.1545 61.104 30.4475 61.5783C30.7406 62.0526 31.16 62.4358 31.6587 62.685L37.6587 65.685C38.1161 65.9136 38.6245 66.0215 39.1354 65.9983C39.6463 65.9752 40.1428 65.8218 40.5777 65.5528C41.0127 65.2838 41.3716 64.908 41.6205 64.4612C41.8694 64.0144 41.9999 63.5114 41.9997 63V42C42.0003 40.5131 42.553 39.0795 43.5507 37.977L65.2197 14.01C65.608 13.5797 65.8634 13.0461 65.9549 12.4737C66.0465 11.9013 65.9702 11.3146 65.7354 10.7846C65.5005 10.2547 65.1172 9.80407 64.6317 9.48736C64.1462 9.17064 63.5793 9.00137 62.9997 9H8.99965C8.41947 9.00021 7.8518 9.16865 7.3654 9.48491C6.879 9.80117 6.49474 10.2517 6.25916 10.7819C6.02359 11.3121 5.94681 11.8992 6.03812 12.4722C6.12944 13.0451 6.38493 13.5793 6.77365 14.01L28.4487 37.977C29.4463 39.0795 29.999 40.5131 29.9997 42V60Z" stroke="white" stroke-width="6" stroke-linecap="round" stroke-linejoin="round"/>
</svg>
