<svg width="72" height="72" viewBox="0 0 72 72" fill="none" xmlns="http://www.w3.org/2000/svg">
<path d="M64.2498 30.9999C64.5498 32.8251 64.725 34.7001 64.725 36.675C64.725 45.8001 61.4748 53.4999 55.8249 58.725C50.8749 63.3 44.1 66 36 66C24.2749 66 14.1499 59.25 9.22488 49.4499C7.17489 45.3999 5.99988 40.8501 5.99988 36C5.99988 31.1499 7.17489 26.6 9.22488 22.55C14.1499 12.75 24.2749 6 36 6C44.1 6 50.8749 8.97501 56.0499 13.825L47.4999 22.375C44.3748 19.4 40.425 17.875 36 17.875C28.1749 17.875 21.5499 23.15 19.1749 30.2751C18.5749 32.0751 18.2249 33.9999 18.2249 36C18.2249 38.0001 18.5499 39.9249 19.1749 41.7249C21.5499 48.8499 28.1749 54.1251 36 54.1251C40.05 54.1251 43.4748 53.025 46.1748 51.225C49.3248 49.1001 51.45 45.975 52.1748 42.2751H36V30.9999H64.2498Z" stroke="white" stroke-width="6" stroke-linejoin="round"/>
</svg>
