<svg width="72" height="72" viewBox="0 0 72 72" fill="none" xmlns="http://www.w3.org/2000/svg">
<path d="M65.4165 30.1246H63V30.0001H36V42.0001H52.9545C50.481 48.9856 43.8345 54.0001 36 54.0001C26.0595 54.0001 18 45.9406 18 36.0001C18 26.0596 26.0595 18.0001 36 18.0001C40.5885 18.0001 44.763 19.7311 47.9415 22.5586L56.427 14.0731C51.069 9.07962 43.902 6.00012 36 6.00012C19.4325 6.00012 6 19.4326 6 36.0001C6 52.5676 19.4325 66.0001 36 66.0001C52.5675 66.0001 66 52.5676 66 36.0001C66 33.9886 65.793 32.0251 65.4165 30.1246Z" fill="#FFC107"/>
<path d="M9.45898 22.0366L19.3155 29.2651C21.9825 22.6621 28.4415 18.0001 36 18.0001C40.5885 18.0001 44.763 19.7311 47.9415 22.5586L56.427 14.0731C51.069 9.07962 43.902 6.00012 36 6.00012C24.477 6.00012 14.484 12.5056 9.45898 22.0366Z" fill="#FF3D00"/>
<path d="M36 65.9999C43.749 65.9999 50.79 63.0344 56.1135 58.2119L46.8285 50.3549C43.8165 52.6364 40.0725 53.9999 36 53.9999C28.197 53.9999 21.5715 49.0244 19.0755 42.0809L9.29248 49.6184C14.2575 59.3339 24.3405 65.9999 36 65.9999Z" fill="#4CAF50"/>
<path d="M65.4165 30.1244H63V29.9999H36V41.9999H52.9545C51.7665 45.3554 49.608 48.2489 46.824 50.3564L46.8285 50.3534L56.1135 58.2104C55.4565 58.8074 66 50.9999 66 35.9999C66 33.9884 65.793 32.0249 65.4165 30.1244Z" fill="#1976D2"/>
</svg>
