<svg width="72" height="72" viewBox="0 0 72 72" fill="none" xmlns="http://www.w3.org/2000/svg">
<path d="M45 63V39C45 38.2044 44.6839 37.4413 44.1213 36.8787C43.5587 36.3161 42.7956 36 42 36H30C29.2044 36 28.4413 36.3161 27.8787 36.8787C27.3161 37.4413 27 38.2044 27 39V63" stroke="white" stroke-width="6" stroke-linecap="round" stroke-linejoin="round"/>
<path d="M9 30C8.99979 29.1272 9.19 28.2648 9.55736 27.4731C9.92473 26.6814 10.4604 25.9794 11.127 25.416L32.127 7.41597C33.21 6.5007 34.5821 5.99854 36 5.99854C37.4179 5.99854 38.79 6.5007 39.873 7.41597L60.873 25.416C61.5396 25.9794 62.0753 26.6814 62.4426 27.4731C62.81 28.2648 63.0002 29.1272 63 30V57C63 58.5913 62.3679 60.1174 61.2426 61.2426C60.1174 62.3678 58.5913 63 57 63H15C13.4087 63 11.8826 62.3678 10.7574 61.2426C9.63214 60.1174 9 58.5913 9 57V30Z" stroke="white" stroke-width="6" stroke-linecap="round" stroke-linejoin="round"/>
</svg>
