<svg width="72" height="72" viewBox="0 0 72 72" fill="none" xmlns="http://www.w3.org/2000/svg">
<g clip-path="url(#clip0_2466_2)">
<path d="M11.5498 25.8599C11.112 23.8875 11.1792 21.8365 11.7453 19.8969C12.3114 17.9574 13.3581 16.1923 14.7883 14.7651C16.2184 13.3379 17.9858 12.295 19.9265 11.7329C21.8672 11.1709 23.9183 11.1079 25.8898 11.5499C26.975 9.85283 28.4699 8.4562 30.2367 7.48878C32.0035 6.52136 33.9855 6.01428 35.9998 6.01428C38.0142 6.01428 39.9961 6.52136 41.763 7.48878C43.5298 8.4562 45.0247 9.85283 46.1098 11.5499C48.0843 11.106 50.1391 11.1687 52.0828 11.7321C54.0266 12.2955 55.7963 13.3413 57.2274 14.7724C58.6584 16.2034 59.7043 17.9731 60.2677 19.9169C60.8311 21.8607 60.8938 23.9154 60.4498 25.8899C62.1469 26.9751 63.5436 28.4699 64.511 30.2368C65.4784 32.0036 65.9855 33.9856 65.9855 35.9999C65.9855 38.0143 65.4784 39.9962 64.511 41.7631C63.5436 43.5299 62.1469 45.0248 60.4498 46.1099C60.8918 48.0814 60.8289 50.1326 60.2669 52.0733C59.7048 54.014 58.6619 55.7814 57.2347 57.2115C55.8075 58.6417 54.0423 59.6883 52.1028 60.2545C50.1633 60.8206 48.1123 60.8878 46.1398 60.4499C45.0561 62.1535 43.5601 63.5561 41.7902 64.5279C40.0204 65.4996 38.0339 66.0091 36.0148 66.0091C33.9958 66.0091 32.0093 65.4996 30.2395 64.5279C28.4696 63.5561 26.9736 62.1535 25.8898 60.4499C23.9183 60.8919 21.8672 60.829 19.9265 60.2669C17.9858 59.7049 16.2184 58.6619 14.7883 57.2348C13.3581 55.8076 12.3114 54.0424 11.7453 52.1029C11.1792 50.1634 11.112 48.1123 11.5498 46.1399C9.83972 45.0577 8.43109 43.5604 7.45499 41.7876C6.4789 40.0147 5.96704 38.0237 5.96704 35.9999C5.96704 33.9761 6.4789 31.9852 7.45499 30.2123C8.43109 28.4394 9.83972 26.9422 11.5498 25.8599Z" stroke="white" stroke-width="6" stroke-linecap="round" stroke-linejoin="round"/>
<path d="M36 48V36" stroke="white" stroke-width="6" stroke-linecap="round" stroke-linejoin="round"/>
<path d="M36 24H36.03" stroke="white" stroke-width="6" stroke-linecap="round" stroke-linejoin="round"/>
</g>
<defs>
<clipPath id="clip0_2466_2">
<rect width="72" height="72" fill="white"/>
</clipPath>
</defs>
</svg>
