<svg width="72" height="72" viewBox="0 0 72 72" fill="none" xmlns="http://www.w3.org/2000/svg">
<path d="M42.318 16.6583C43.1508 17.0745 44.069 17.2911 45 17.2911C45.931 17.2911 46.8492 17.0745 47.682 16.6583L58.659 11.1683C59.1167 10.9396 59.6253 10.8317 60.1365 10.855C60.6476 10.8783 61.1443 11.0319 61.5794 11.3013C62.0144 11.5707 62.3733 11.9469 62.622 12.3941C62.8706 12.8413 63.0008 13.3446 63 13.8563V52.1483C62.9997 52.7053 62.8444 53.2512 62.5514 53.7249C62.2583 54.1986 61.8393 54.5813 61.341 54.8303L47.682 61.6613C46.8492 62.0775 45.931 62.2941 45 62.2941C44.069 62.2941 43.1508 62.0775 42.318 61.6613L29.682 55.3433C28.8492 54.9272 27.931 54.7105 27 54.7105C26.069 54.7105 25.1508 54.9272 24.318 55.3433L13.341 60.8333C12.8831 61.0622 12.3742 61.17 11.8628 61.1466C11.3514 61.1232 10.8545 60.9693 10.4194 60.6995C9.98424 60.4298 9.62539 60.0532 9.37695 59.6056C9.12851 59.158 8.99875 58.6543 9.00001 58.1423V19.8533C9.00031 19.2963 9.15566 18.7504 9.44867 18.2767C9.74167 17.8031 10.1608 17.4203 10.659 17.1713L24.318 10.3403C25.1508 9.92416 26.069 9.70752 27 9.70752C27.931 9.70752 28.8492 9.92416 29.682 10.3403L42.318 16.6583Z" stroke="white" stroke-width="6" stroke-linecap="round" stroke-linejoin="round"/>
<path d="M45 17.2925V62.2925" stroke="white" stroke-width="6" stroke-linecap="round" stroke-linejoin="round"/>
<path d="M27 9.70752V54.7075" stroke="white" stroke-width="6" stroke-linecap="round" stroke-linejoin="round"/>
</svg>
