<svg width="72" height="72" viewBox="0 0 72 72" fill="none" xmlns="http://www.w3.org/2000/svg">
<path d="M60 30C60 44.979 43.383 60.579 37.803 65.397C37.2832 65.7879 36.6504 65.9993 36 65.9993C35.3496 65.9993 34.7168 65.7879 34.197 65.397C28.617 60.579 12 44.979 12 30C12 23.6348 14.5286 17.5303 19.0294 13.0294C23.5303 8.52856 29.6348 6 36 6C42.3652 6 48.4697 8.52856 52.9706 13.0294C57.4714 17.5303 60 23.6348 60 30Z" stroke="white" stroke-width="6" stroke-linecap="round" stroke-linejoin="round"/>
<path d="M36 39C40.9706 39 45 34.9706 45 30C45 25.0294 40.9706 21 36 21C31.0294 21 27 25.0294 27 30C27 34.9706 31.0294 39 36 39Z" stroke="white" stroke-width="6" stroke-linecap="round" stroke-linejoin="round"/>
</svg>
