<svg width="72" height="72" viewBox="0 0 72 72" fill="none" xmlns="http://www.w3.org/2000/svg">
<path d="M15 15.0003C14.9997 13.9446 15.2779 12.9075 15.8067 11.9937C16.3354 11.0799 17.0958 10.3218 18.0113 9.7959C18.9267 9.27002 19.9647 8.99499 21.0204 8.99857C22.0761 9.00215 23.1122 9.28423 24.024 9.81631L60.015 30.8103C60.9233 31.3374 61.6774 32.0935 62.2018 33.0033C62.7263 33.9131 63.0028 34.9446 63.0037 35.9947C63.0046 37.0449 62.7299 38.0768 62.207 38.9875C61.6841 39.8982 60.9314 40.6557 60.024 41.1843L24.024 62.1843C23.1122 62.7164 22.0761 62.9985 21.0204 63.0021C19.9647 63.0056 18.9267 62.7306 18.0113 62.2047C17.0958 61.6788 16.3354 60.9207 15.8067 60.0069C15.2779 59.0932 14.9997 58.056 15 57.0003V15.0003Z" stroke="white" stroke-width="6" stroke-linecap="round" stroke-linejoin="round"/>
</svg>
