<svg width="72" height="72" viewBox="0 0 72 72" fill="none" xmlns="http://www.w3.org/2000/svg">
<path d="M29.0132 12.4085C29.1785 10.6695 29.9862 9.05459 31.2785 7.87929C32.5708 6.704 34.2549 6.05273 36.0017 6.05273C37.7485 6.05273 39.4326 6.704 40.7249 7.87929C42.0172 9.05459 42.8249 10.6695 42.9902 12.4085C43.0895 13.5318 43.4581 14.6147 44.0646 15.5655C44.6711 16.5162 45.4978 17.3069 46.4746 17.8705C47.4514 18.4341 48.5496 18.7541 49.6763 18.8033C50.803 18.8526 51.9249 18.6297 52.9472 18.1535C54.5345 17.4328 56.3332 17.3285 57.9932 17.8609C59.6532 18.3933 61.0557 19.5243 61.9277 21.0338C62.7998 22.5432 63.079 24.3232 62.7111 26.0272C62.3432 27.7312 61.3544 29.2373 59.9372 30.2525C59.0143 30.9 58.261 31.7603 57.7409 32.7605C57.2208 33.7608 56.9493 34.8716 56.9493 35.999C56.9493 37.1263 57.2208 38.2371 57.7409 39.2374C58.261 40.2376 59.0143 41.0979 59.9372 41.7455C61.3544 42.7606 62.3432 44.2667 62.7111 45.9707C63.079 47.6747 62.7998 49.4547 61.9277 50.9641C61.0557 52.4736 59.6532 53.6046 57.9932 54.137C56.3332 54.6694 54.5345 54.5651 52.9472 53.8445C51.9249 53.3682 50.803 53.1453 49.6763 53.1946C48.5496 53.2438 47.4514 53.5638 46.4746 54.1274C45.4978 54.691 44.6711 55.4817 44.0646 56.4324C43.4581 57.3832 43.0895 58.4661 42.9902 59.5895C42.8249 61.3284 42.0172 62.9433 40.7249 64.1186C39.4326 65.2939 37.7485 65.9452 36.0017 65.9452C34.2549 65.9452 32.5708 65.2939 31.2785 64.1186C29.9862 62.9433 29.1785 61.3284 29.0132 59.5895C28.914 58.4657 28.5455 57.3824 27.9388 56.4313C27.3321 55.4802 26.5051 54.6893 25.5279 54.1256C24.5507 53.562 23.452 53.2421 22.3249 53.1932C21.1978 53.1442 20.0756 53.3676 19.0532 53.8445C17.4658 54.5651 15.6672 54.6694 14.0072 54.137C12.3472 53.6046 10.9447 52.4736 10.0726 50.9641C9.20056 49.4547 8.92132 47.6747 9.28926 45.9707C9.6572 44.2667 10.646 42.7606 12.0632 41.7455C12.986 41.0979 13.7394 40.2376 14.2594 39.2374C14.7795 38.2371 15.051 37.1263 15.051 35.999C15.051 34.8716 14.7795 33.7608 14.2594 32.7605C13.7394 31.7603 12.986 30.9 12.0632 30.2525C10.648 29.2368 9.66093 27.7312 9.29389 26.0284C8.92684 24.3256 9.20601 22.5471 10.0771 21.0386C10.9483 19.5301 12.3491 18.3994 14.0075 17.8662C15.6658 17.333 17.4631 17.4354 19.0502 18.1535C20.0725 18.6297 21.1944 18.8526 22.3211 18.8033C23.4478 18.7541 24.546 18.4341 25.5228 17.8705C26.4996 17.3069 27.3263 16.5162 27.9328 15.5655C28.5393 14.6147 28.9078 13.5318 29.0072 12.4085" stroke="white" stroke-width="6" stroke-linecap="round" stroke-linejoin="round"/>
<path d="M36 45C40.9706 45 45 40.9706 45 36C45 31.0294 40.9706 27 36 27C31.0294 27 27 31.0294 27 36C27 40.9706 31.0294 45 36 45Z" stroke="white" stroke-width="6" stroke-linecap="round" stroke-linejoin="round"/>
</svg>
