<svg width="72" height="72" viewBox="0 0 72 72" fill="none" xmlns="http://www.w3.org/2000/svg">
<path d="M34.5749 6.88468C34.7064 6.61906 34.9095 6.39548 35.1613 6.23916C35.4131 6.08283 35.7035 6 35.9999 6C36.2963 6 36.5868 6.08283 36.8385 6.23916C37.0903 6.39548 37.2934 6.61906 37.4249 6.88468L44.3549 20.9217C44.8114 21.8456 45.4853 22.6449 46.3188 23.251C47.1522 23.8572 48.1203 24.252 49.1399 24.4017L64.6379 26.6697C64.9316 26.7122 65.2075 26.8361 65.4344 27.0273C65.6613 27.2185 65.8302 27.4693 65.922 27.7515C66.0137 28.0337 66.0247 28.3359 65.9537 28.624C65.8826 28.9121 65.7324 29.1745 65.5199 29.3817L54.3119 40.2957C53.5728 41.016 53.0197 41.9051 52.7004 42.8866C52.3811 43.868 52.3051 44.9123 52.4789 45.9297L55.1249 61.3497C55.1767 61.6432 55.145 61.9454 55.0334 62.2217C54.9218 62.4981 54.7347 62.7375 54.4935 62.9127C54.2524 63.0878 53.9668 63.1917 53.6695 63.2124C53.3722 63.2331 53.075 63.1698 52.8119 63.0297L38.9579 55.7457C38.0451 55.2664 37.0294 55.0159 35.9984 55.0159C34.9674 55.0159 33.9518 55.2664 33.0389 55.7457L19.1879 63.0297C18.9249 63.1689 18.6281 63.2315 18.3313 63.2104C18.0344 63.1893 17.7495 63.0854 17.5088 62.9103C17.2681 62.7353 17.0814 62.4962 16.9699 62.2203C16.8583 61.9445 16.8265 61.6428 16.8779 61.3497L19.5209 45.9327C19.6955 44.9149 19.6199 43.8699 19.3005 42.8878C18.9812 41.9058 18.4277 41.0161 17.6879 40.2957L6.47991 29.3847C6.26569 29.1778 6.11389 28.9149 6.04179 28.6259C5.9697 28.3369 5.98022 28.0335 6.07214 27.7503C6.16407 27.467 6.33371 27.2152 6.56174 27.0236C6.78977 26.8321 7.06702 26.7084 7.36191 26.6667L22.8569 24.4017C23.8777 24.2532 24.8471 23.8589 25.6817 23.2526C26.5162 22.6464 27.191 21.8465 27.6479 20.9217L34.5749 6.88468Z" stroke="white" stroke-width="6" stroke-linecap="round" stroke-linejoin="round"/>
</svg>
